<?xml version="1.0" encoding="utf-8"?>
<!-- Generator: Adobe Illustrator 18.1.1, SVG Export Plug-In . SVG Version: 6.00 Build 0)  -->
<svg version="1.1" id="Layer_1" xmlns="http://www.w3.org/2000/svg" xmlns:xlink="http://www.w3.org/1999/xlink" x="0px" y="0px"
	 viewBox="0 0 1024 1024" enable-background="new 0 0 1024 1024" xml:space="preserve">
<path fill="#90908F" d="M532,0C263.8,0,59,107.3,59,238.9c0,73.6,50.4,353.3,97.5,585.1c0,112.2,170.7,199.9,375.5,199.9
	s375.5-92.6,375.5-204.8c37.3-216.2,96.6-537.6,97.5-580.3C1009.8,107.3,800.1,0,532,0z M853.8,819.2c0,73.1-141.4,156-326.7,156
	c-190.2,0-326.7-78-326.7-151.2l-78-453.5c87.8,73.1,243.8,121.9,409.6,121.9s321.8-48.8,409.6-121.9L853.8,819.2z M958.7,243.9
	c0,101.3-209.7,180.4-429.1,180.4s-409.6-78-424.2-175.5v-14.6c0-92.6,170.7-190.2,424.2-190.2S958.7,142.5,958.7,243.9z"/>
</svg>
