<?xml version="1.0" encoding="UTF-8" standalone="no"?>
<!-- Generator: Adobe Illustrator 18.1.1, SVG Export Plug-In . SVG Version: 6.00 Build 0)  -->

<svg
   xmlns:dc="http://purl.org/dc/elements/1.1/"
   xmlns:cc="http://creativecommons.org/ns#"
   xmlns:rdf="http://www.w3.org/1999/02/22-rdf-syntax-ns#"
   xmlns:svg="http://www.w3.org/2000/svg"
   xmlns="http://www.w3.org/2000/svg"
   xmlns:sodipodi="http://sodipodi.sourceforge.net/DTD/sodipodi-0.dtd"
   xmlns:inkscape="http://www.inkscape.org/namespaces/inkscape"
   version="1.1"
   id="Layer_1"
   x="0px"
   y="0px"
   viewBox="0 0 33.5 33.5"
   enable-background="new 0 0 33.5 33.5"
   xml:space="preserve"
   inkscape:version="0.91 r13725"
   sodipodi:docname="typeALogoOrange.svg"><metadata
     id="metadata13"><rdf:RDF><cc:Work
         rdf:about=""><dc:format>image/svg+xml</dc:format><dc:type
           rdf:resource="http://purl.org/dc/dcmitype/StillImage" /><dc:title></dc:title></cc:Work></rdf:RDF></metadata><defs
     id="defs11" /><sodipodi:namedview
     pagecolor="#ffffff"
     bordercolor="#666666"
     borderopacity="1"
     objecttolerance="10"
     gridtolerance="10"
     guidetolerance="10"
     inkscape:pageopacity="0"
     inkscape:pageshadow="2"
     inkscape:window-width="1010"
     inkscape:window-height="598"
     id="namedview9"
     showgrid="false"
     inkscape:zoom="7.0447761"
     inkscape:cx="16.75"
     inkscape:cy="16.75"
     inkscape:window-x="0"
     inkscape:window-y="0"
     inkscape:window-maximized="0"
     inkscape:current-layer="g3" /><g
     id="g3"><path
       fill="#525353"
       d="M33.4,12.4l0-0.1L30.2,9L29,4.5l-4.5-1.2l-3.2-3.2L21.2,0l-4.5,1.2L12.4,0l-0.1,0L9,3.3L4.6,4.4l-0.1,0   L3.3,9L0,12.3l1.2,4.5L0,21.1l0,0.1l3.3,3.3L4.5,29L9,30.2l3.2,3.2l0.1,0.1l4.5-1.2l4.3,1.2l0.1,0l3.3-3.3l4.3-1.2l0.1,0l1.2-4.5   l3.2-3.2l0.1-0.1l-1.2-4.5L33.4,12.4z M32.9,12.4L32,15.8l-1.6-5.8L32.9,12.4z M31.8,16.7l-2,7.5l-5.5,5.5l-7.5,2l-7.5-2l-5.5-5.5   l-2-7.5l2-7.5l5.5-5.5l7.5-2l7.5,2l5.5,5.5L31.8,16.7z M28.6,4.9l0.9,3.4L25.2,4L28.6,4.9z M21.1,0.6L23.5,3l-5.8-1.6L21.1,0.6z    M12.4,0.6l3.4,0.9L9.9,3L12.4,0.6z M4.9,4.9L8.3,4L4,8.3L4.9,4.9z M0.6,12.4L3,9.9l-1.6,5.8L0.6,12.4z M0.6,21.1l0.9-3.4L3,23.5   L0.6,21.1z M4.9,28.6L4,25.2l4.3,4.3L4.9,28.6z M12.4,32.9l-2.5-2.5l5.8,1.6L12.4,32.9z M21.1,32.9L17.7,32l5.8-1.6L21.1,32.9z    M28.6,28.6l-3.4,0.9l4.3-4.3L28.6,28.6z M32.9,21.1l-2.5,2.5l1.6-5.8L32.9,21.1z"
       id="path5"
       style="fill:#ff6600" /><path
       fill="#525353"
       d="M17.9,6.5c-0.2-0.2-0.4-0.3-0.6-0.4c-0.5-0.1-1,0-1.4,0.4l-9.7,9.9c-0.5,0.5-0.5,1.4,0,2l2.2,2.2   c0.5,0.5,1.4,0.5,2,0l3.6-3.7V26c0,0.8,0.6,1.4,1.4,1.4h3.1c0.8,0,1.4-0.6,1.4-1.4v-9.1l3.6,3.7c0.5,0.5,1.4,0.5,2,0l2.2-2.2   c0.5-0.5,0.5-1.4,0-2L17.9,6.5z M27.3,18l-2.2,2.2c-0.3,0.3-0.9,0.3-1.2,0l-4.5-4.6V26c0,0.5-0.4,0.9-0.9,0.9h-3.1   c-0.5,0-0.9-0.4-0.9-0.9V15.7L10,20.3c-0.3,0.3-0.9,0.3-1.2,0L6.6,18c-0.3-0.4-0.3-0.9,0-1.3l9.7-9.9c0.2-0.2,0.6-0.3,0.9-0.2   c0.1,0,0.3,0.1,0.4,0.2l9.7,9.9C27.6,17.1,27.6,17.7,27.3,18z"
       id="path7"
       style="fill:#ff6600" /></g></svg>