<?xml version="1.0" encoding="utf-8"?>
<!-- Generator: Adobe Illustrator 18.1.1, SVG Export Plug-In . SVG Version: 6.00 Build 0)  -->
<svg version="1.1" id="Layer_1" xmlns="http://www.w3.org/2000/svg" xmlns:xlink="http://www.w3.org/1999/xlink" x="0px" y="0px"
	 viewBox="0 0 171.8 15.8" enable-background="new 0 0 171.8 15.8" xml:space="preserve">
<g>
	<path fill="#525252" d="M0,1.5V0.2h11v1.2H6.2v14.1H4.8V1.5H0z"/>
	<path fill="#525252" d="M17.8,15.5h-1.4V9.1l-4.9-8.8h1.5l4.1,7.4l4-7.4h1.5l-4.9,8.8V15.5z"/>
	<path fill="#525252" d="M30.5,10.2h-4.2v5.3h-1.4V0.2h5.6c1.6,0,2.8,0.4,3.6,1.2c0.8,0.8,1.2,2,1.2,3.7
		C35.3,8.5,33.7,10.2,30.5,10.2z M26.3,9h4.2c2.2,0,3.3-1.3,3.3-3.9c0-1.2-0.3-2.2-0.8-2.8c-0.5-0.6-1.4-0.9-2.6-0.9h-4.2V9z"/>
	<path fill="#525252" d="M38,15.5V0.2h9.2v1.2h-7.8v5.7h6.5v1.2h-6.5v6h7.8v1.2H38z"/>
	<path fill="#525252" d="M53.6,15.5L58,0.2h3.2l4.4,15.3h-1.3L63,11.3h-6.8L55,15.5H53.6z M59,1.4l-2.5,8.7h6.2l-2.5-8.7H59z"/>
	<path fill="#525252" d="M72.9,15.5V0.2h2.6l4.7,13.4l4.7-13.4h2.6v15.3h-1.4V1.7h-0.3L81,15h-1.6L74.6,1.7h-0.3v13.9H72.9z"/>
	<path fill="#525252" d="M89.9,15.5l4.4-15.3h3.2l4.4,15.3h-1.3l-1.2-4.2h-6.8l-1.2,4.2H89.9z M95.3,1.4l-2.5,8.7H99l-2.5-8.7H95.3z
		"/>
	<path fill="#525252" d="M113.2,15.3c-1.5,0.3-2.8,0.5-3.9,0.5c-1.1,0-1.9-0.1-2.6-0.3c-0.7-0.2-1.2-0.5-1.6-1
		c-0.4-0.4-0.7-0.9-1-1.6c-0.4-1.2-0.7-2.8-0.7-4.9c0-3.3,0.5-5.5,1.6-6.6c0.9-0.9,2.2-1.3,4-1.3c1.2,0,2.6,0.2,4.1,0.5l-0.1,1.2
		c-1.5-0.3-2.8-0.4-3.7-0.4c-0.9,0-1.6,0.1-2.1,0.3c-0.5,0.2-0.9,0.5-1.2,0.8s-0.6,0.8-0.7,1.4c-0.3,1-0.4,2.2-0.4,3.7
		c0,1.5,0.1,2.6,0.2,3.4c0.1,0.7,0.3,1.4,0.6,2c0.3,0.6,0.7,1,1.3,1.3c0.6,0.3,1.4,0.4,2.4,0.4s2.3-0.1,3.8-0.4L113.2,15.3z"/>
	<path fill="#525252" d="M125.7,15.5V8.5h-8.3v7.1H116V0.2h1.4v7h8.3v-7h1.3v15.3H125.7z"/>
	<path fill="#525252" d="M130.9,15.5V0.2h1.4v15.3H130.9z"/>
	<path fill="#525252" d="M136,15.5V0.2h2.7l6.4,14.1h0.5V0.2h1.3v15.3h-2.6l-6.4-14.1h-0.5v14.1H136z"/>
	<path fill="#525252" d="M150.8,15.5V0.2h9.2v1.2h-7.8v5.7h6.5v1.2h-6.5v6h7.8v1.2H150.8z"/>
	<path fill="#525252" d="M167,1.2c-2.4,0-3.5,0.9-3.5,2.7c0,1.1,0.3,1.8,0.8,2.1c0.5,0.4,1.6,0.7,3.1,1c1.6,0.3,2.7,0.7,3.3,1.3
		c0.7,0.5,1,1.5,1,2.7c0,1.6-0.4,2.8-1.2,3.6c-0.8,0.7-2,1.1-3.6,1.1c-1.1,0-2.5-0.1-4-0.3l-0.8-0.1l0.2-1.2c2,0.2,3.6,0.4,4.7,0.4
		c1.1,0,1.9-0.3,2.5-0.8c0.6-0.5,0.9-1.3,0.9-2.4c0-1-0.3-1.7-0.8-2.1c-0.5-0.4-1.3-0.7-2.4-0.9s-1.9-0.4-2.4-0.6
		c-0.5-0.2-1-0.4-1.4-0.7s-0.8-0.7-1-1.2c-0.2-0.5-0.3-1.1-0.3-1.9c0-2.7,1.6-4,4.8-4c1,0,2.2,0.1,3.8,0.3l0.7,0.1l-0.1,1.2
		C169.3,1.3,167.9,1.2,167,1.2z"/>
</g>
</svg>
